M48
; DRILL file {KiCad 9.0.0} date 2025-03-05T16:37:39-0500
; FORMAT={-:-/ absolute / metric / decimal}
; #@! TF.CreationDate,2025-03-05T16:37:39-05:00
; #@! TF.GenerationSoftware,Kicad,Pcbnew,9.0.0
; #@! TF.FileFunction,Plated,1,2,PTH
FMAT,2
METRIC
; #@! TA.AperFunction,Plated,PTH,ViaDrill
T1C0.300
; #@! TA.AperFunction,Plated,PTH,ComponentDrill
T2C0.790
; #@! TA.AperFunction,Plated,PTH,ComponentDrill
T3C0.800
; #@! TA.AperFunction,Plated,PTH,ComponentDrill
T4C1.000
; #@! TA.AperFunction,Plated,PTH,ComponentDrill
T5C1.020
; #@! TA.AperFunction,Plated,PTH,ComponentDrill
T6C1.100
%
G90
G05
T1
X82.41Y-23.5
T2
X51.0Y-29.0
X51.0Y-31.54
X51.0Y-34.08
T3
X43.5Y-38.3
X43.5Y-51.0
T4
X41.2Y-68.5
X43.74Y-68.5
X46.28Y-68.5
X48.82Y-68.5
X49.5Y-84.96
X49.5Y-87.5
X49.5Y-90.04
X67.025Y-84.96
X67.025Y-87.5
X67.025Y-90.04
X100.0Y-85.96
X100.0Y-88.5
X100.0Y-91.04
X105.5Y-36.46
X105.5Y-39.0
X117.0Y-47.92
X117.0Y-50.46
X117.0Y-53.0
X117.0Y-55.54
X117.0Y-58.08
T5
X66.3Y-27.985
X66.3Y-30.525
X66.3Y-33.065
X66.3Y-35.605
X66.3Y-38.145
X66.3Y-40.685
X66.3Y-43.225
X66.3Y-45.765
X66.3Y-48.305
X66.3Y-50.845
X66.3Y-53.385
X66.3Y-55.925
X66.3Y-58.465
X66.3Y-61.005
X66.3Y-63.545
X91.7Y-27.985
X91.7Y-30.525
X91.7Y-33.065
X91.7Y-35.605
X91.7Y-38.145
X91.7Y-40.685
X91.7Y-43.225
X91.7Y-45.765
X91.7Y-48.305
X91.7Y-50.845
X91.7Y-53.385
X91.7Y-55.925
X91.7Y-58.465
X91.7Y-61.005
X91.7Y-63.545
T6
X116.5Y-31.92
X116.5Y-42.08
M30
