%TF.GenerationSoftware,KiCad,Pcbnew,9.0.0*%
%TF.CreationDate,2025-03-05T16:28:05-05:00*%
%TF.ProjectId,Sistema-de-riego-automatico,53697374-656d-4612-9d64-652d72696567,rev?*%
%TF.SameCoordinates,Original*%
%TF.FileFunction,Soldermask,Bot*%
%TF.FilePolarity,Negative*%
%FSLAX46Y46*%
G04 Gerber Fmt 4.6, Leading zero omitted, Abs format (unit mm)*
G04 Created by KiCad (PCBNEW 9.0.0) date 2025-03-05 16:28:05*
%MOMM*%
%LPD*%
G01*
G04 APERTURE LIST*
%ADD10R,1.700000X1.700000*%
%ADD11O,1.700000X1.700000*%
%ADD12C,3.200000*%
%ADD13O,1.600000X1.600000*%
%ADD14C,1.600000*%
%ADD15C,2.000000*%
%ADD16R,2.000000X2.000000*%
%ADD17C,3.000000*%
%ADD18C,1.298000*%
%ADD19R,1.298000X1.298000*%
%ADD20O,2.200000X2.200000*%
%ADD21R,2.200000X2.200000*%
G04 APERTURE END LIST*
D10*
%TO.C,J5*%
X67025000Y-84960000D03*
D11*
X67025000Y-87500000D03*
X67025000Y-90040000D03*
%TD*%
D12*
%TO.C,REF\u002A\u002A*%
X41000000Y-101000000D03*
%TD*%
%TO.C,REF\u002A\u002A*%
X118500000Y-101500000D03*
%TD*%
%TO.C,REF\u002A\u002A*%
X40500000Y-24000000D03*
%TD*%
%TO.C,REF\u002A\u002A*%
X118500000Y-24000000D03*
%TD*%
D11*
%TO.C,J1*%
X100000000Y-91040000D03*
X100000000Y-88500000D03*
D10*
X100000000Y-85960000D03*
%TD*%
D11*
%TO.C,J2*%
X117000000Y-58080000D03*
X117000000Y-55540000D03*
X117000000Y-53000000D03*
X117000000Y-50460000D03*
D10*
X117000000Y-47920000D03*
%TD*%
D13*
%TO.C,R1*%
X43500000Y-38300000D03*
D14*
X43500000Y-51000000D03*
%TD*%
D15*
%TO.C,U1*%
X91700000Y-27985000D03*
X91700000Y-30525000D03*
X91700000Y-33065000D03*
X91700000Y-35605000D03*
X91700000Y-38145000D03*
X91700000Y-40685000D03*
X91700000Y-43225000D03*
X91700000Y-45765000D03*
X91700000Y-48305000D03*
X91700000Y-50845000D03*
X91700000Y-53385000D03*
X91700000Y-55925000D03*
X91700000Y-58465000D03*
X91700000Y-61005000D03*
X91700000Y-63545000D03*
X66300000Y-63545000D03*
X66300000Y-61005000D03*
X66300000Y-58465000D03*
X66300000Y-55925000D03*
X66300000Y-53385000D03*
X66300000Y-50845000D03*
X66300000Y-48305000D03*
X66300000Y-45765000D03*
X66300000Y-43225000D03*
X66300000Y-40685000D03*
X66300000Y-38145000D03*
X66300000Y-35605000D03*
X66300000Y-33065000D03*
X66300000Y-30525000D03*
D16*
X66300000Y-27985000D03*
D17*
X91230000Y-66975000D03*
X91230000Y-20025000D03*
X66720000Y-66975000D03*
X66720000Y-20025000D03*
%TD*%
D11*
%TO.C,J7*%
X49500000Y-90040000D03*
X49500000Y-87500000D03*
D10*
X49500000Y-84960000D03*
%TD*%
D11*
%TO.C,J3*%
X48820000Y-68500000D03*
X46280000Y-68500000D03*
X43740000Y-68500000D03*
D10*
X41200000Y-68500000D03*
%TD*%
D18*
%TO.C,Q1*%
X51000000Y-29000000D03*
X51000000Y-31540000D03*
D19*
X51000000Y-34080000D03*
%TD*%
D11*
%TO.C,J6*%
X105500000Y-36460000D03*
D10*
X105500000Y-39000000D03*
%TD*%
D20*
%TO.C,D1*%
X116500000Y-31920000D03*
D21*
X116500000Y-42080000D03*
%TD*%
M02*
