%TF.GenerationSoftware,KiCad,Pcbnew,9.0.0*%
%TF.CreationDate,2025-03-05T16:28:03-05:00*%
%TF.ProjectId,Sistema-de-riego-automatico,53697374-656d-4612-9d64-652d72696567,rev?*%
%TF.SameCoordinates,Original*%
%TF.FileFunction,Copper,L1,Top*%
%TF.FilePolarity,Positive*%
%FSLAX46Y46*%
G04 Gerber Fmt 4.6, Leading zero omitted, Abs format (unit mm)*
G04 Created by KiCad (PCBNEW 9.0.0) date 2025-03-05 16:28:03*
%MOMM*%
%LPD*%
G01*
G04 APERTURE LIST*
%TA.AperFunction,ComponentPad*%
%ADD10R,1.700000X1.700000*%
%TD*%
%TA.AperFunction,ComponentPad*%
%ADD11O,1.700000X1.700000*%
%TD*%
%TA.AperFunction,ComponentPad*%
%ADD12O,1.600000X1.600000*%
%TD*%
%TA.AperFunction,ComponentPad*%
%ADD13C,1.600000*%
%TD*%
%TA.AperFunction,ComponentPad*%
%ADD14C,2.000000*%
%TD*%
%TA.AperFunction,ComponentPad*%
%ADD15R,2.000000X2.000000*%
%TD*%
%TA.AperFunction,ComponentPad*%
%ADD16C,1.298000*%
%TD*%
%TA.AperFunction,ComponentPad*%
%ADD17R,1.298000X1.298000*%
%TD*%
%TA.AperFunction,ComponentPad*%
%ADD18O,2.200000X2.200000*%
%TD*%
%TA.AperFunction,ComponentPad*%
%ADD19R,2.200000X2.200000*%
%TD*%
%TA.AperFunction,ViaPad*%
%ADD20C,0.600000*%
%TD*%
%TA.AperFunction,Conductor*%
%ADD21C,0.500000*%
%TD*%
G04 APERTURE END LIST*
D10*
%TO.P,J5,1,Pin_1*%
%TO.N,GND*%
X67025000Y-84960000D03*
D11*
%TO.P,J5,2,Pin_2*%
%TO.N,+3.3V*%
X67025000Y-87500000D03*
%TO.P,J5,3,Pin_3*%
%TO.N,/S_HM*%
X67025000Y-90040000D03*
%TD*%
%TO.P,J1,3,Pin_3*%
%TO.N,/S_SN*%
X100000000Y-91040000D03*
%TO.P,J1,2,Pin_2*%
%TO.N,+3.3V*%
X100000000Y-88500000D03*
D10*
%TO.P,J1,1,Pin_1*%
%TO.N,GND*%
X100000000Y-85960000D03*
%TD*%
D11*
%TO.P,J2,5,Pin_5*%
%TO.N,/Output_B*%
X117000000Y-58080000D03*
%TO.P,J2,4,Pin_4*%
%TO.N,GND*%
X117000000Y-55540000D03*
%TO.P,J2,3,Pin_3*%
%TO.N,/Output_A*%
X117000000Y-53000000D03*
%TO.P,J2,2,Pin_2*%
%TO.N,GND*%
X117000000Y-50460000D03*
D10*
%TO.P,J2,1,Pin_1*%
%TO.N,/Switch*%
X117000000Y-47920000D03*
%TD*%
D12*
%TO.P,R1,2*%
%TO.N,Net-(Q1-Pad2)*%
X43500000Y-38300000D03*
D13*
%TO.P,R1,1*%
%TO.N,/PWM_B*%
X43500000Y-51000000D03*
%TD*%
D14*
%TO.P,U1,30,VIN*%
%TO.N,/P_B*%
X91700000Y-27985000D03*
%TO.P,U1,29,GND*%
%TO.N,GND*%
X91700000Y-30525000D03*
%TO.P,U1,28,D13*%
%TO.N,unconnected-(U1-D13-Pad28)*%
X91700000Y-33065000D03*
%TO.P,U1,27,D12*%
%TO.N,unconnected-(U1-D12-Pad27)*%
X91700000Y-35605000D03*
%TO.P,U1,26,D14*%
%TO.N,unconnected-(U1-D14-Pad26)*%
X91700000Y-38145000D03*
%TO.P,U1,25,D27*%
%TO.N,unconnected-(U1-D27-Pad25)*%
X91700000Y-40685000D03*
%TO.P,U1,24,D26*%
%TO.N,unconnected-(U1-D26-Pad24)*%
X91700000Y-43225000D03*
%TO.P,U1,23,D25*%
%TO.N,unconnected-(U1-D25-Pad23)*%
X91700000Y-45765000D03*
%TO.P,U1,22,D33*%
%TO.N,unconnected-(U1-D33-Pad22)*%
X91700000Y-48305000D03*
%TO.P,U1,21,D32*%
%TO.N,/Switch*%
X91700000Y-50845000D03*
%TO.P,U1,20,D35*%
%TO.N,/Output_A*%
X91700000Y-53385000D03*
%TO.P,U1,19,D34*%
%TO.N,/Output_B*%
X91700000Y-55925000D03*
%TO.P,U1,18,VN*%
%TO.N,/S_HM*%
X91700000Y-58465000D03*
%TO.P,U1,17,VP*%
%TO.N,/S_SN*%
X91700000Y-61005000D03*
%TO.P,U1,16,EN*%
%TO.N,unconnected-(U1-EN-Pad16)*%
X91700000Y-63545000D03*
%TO.P,U1,15,D23*%
%TO.N,unconnected-(U1-D23-Pad15)*%
X66300000Y-63545000D03*
%TO.P,U1,14,D22*%
%TO.N,/SCL*%
X66300000Y-61005000D03*
%TO.P,U1,13,TX0*%
%TO.N,unconnected-(U1-TX0-Pad13)*%
X66300000Y-58465000D03*
%TO.P,U1,12,RX0*%
%TO.N,unconnected-(U1-RX0-Pad12)*%
X66300000Y-55925000D03*
%TO.P,U1,11,D21*%
%TO.N,/SDA*%
X66300000Y-53385000D03*
%TO.P,U1,10,D19*%
%TO.N,/PWM_B*%
X66300000Y-50845000D03*
%TO.P,U1,9,D18*%
%TO.N,unconnected-(U1-D18-Pad9)*%
X66300000Y-48305000D03*
%TO.P,U1,8,D5*%
%TO.N,unconnected-(U1-D5-Pad8)*%
X66300000Y-45765000D03*
%TO.P,U1,7,TX2*%
%TO.N,unconnected-(U1-TX2-Pad7)*%
X66300000Y-43225000D03*
%TO.P,U1,6,RX2*%
%TO.N,unconnected-(U1-RX2-Pad6)*%
X66300000Y-40685000D03*
%TO.P,U1,5,D4*%
%TO.N,/S_T*%
X66300000Y-38145000D03*
%TO.P,U1,4,D2*%
%TO.N,unconnected-(U1-D2-Pad4)*%
X66300000Y-35605000D03*
%TO.P,U1,3,D15*%
%TO.N,unconnected-(U1-D15-Pad3)*%
X66300000Y-33065000D03*
%TO.P,U1,2,GND*%
%TO.N,GND*%
X66300000Y-30525000D03*
D15*
%TO.P,U1,1,3V3*%
%TO.N,+3.3V*%
X66300000Y-27985000D03*
%TD*%
D11*
%TO.P,J7,3,Pin_3*%
%TO.N,+3.3V*%
X49500000Y-90040000D03*
%TO.P,J7,2,Pin_2*%
%TO.N,GND*%
X49500000Y-87500000D03*
D10*
%TO.P,J7,1,Pin_1*%
%TO.N,/S_T*%
X49500000Y-84960000D03*
%TD*%
D11*
%TO.P,J3,4,Pin_4*%
%TO.N,GND*%
X48820000Y-68500000D03*
%TO.P,J3,3,Pin_3*%
%TO.N,+3.3V*%
X46280000Y-68500000D03*
%TO.P,J3,2,Pin_2*%
%TO.N,/SCL*%
X43740000Y-68500000D03*
D10*
%TO.P,J3,1,Pin_1*%
%TO.N,/SDA*%
X41200000Y-68500000D03*
%TD*%
D16*
%TO.P,Q1,3*%
%TO.N,Net-(D1-A)*%
X51000000Y-29000000D03*
%TO.P,Q1,2*%
%TO.N,Net-(Q1-Pad2)*%
X51000000Y-31540000D03*
D17*
%TO.P,Q1,1*%
%TO.N,GND*%
X51000000Y-34080000D03*
%TD*%
D11*
%TO.P,J6,2,Pin_2*%
%TO.N,Net-(D1-A)*%
X105500000Y-36460000D03*
D10*
%TO.P,J6,1,Pin_1*%
%TO.N,/P_B*%
X105500000Y-39000000D03*
%TD*%
D18*
%TO.P,D1,2,A*%
%TO.N,Net-(D1-A)*%
X116500000Y-31920000D03*
D19*
%TO.P,D1,1,K*%
%TO.N,/P_B*%
X116500000Y-42080000D03*
%TD*%
D20*
%TO.N,Net-(D1-A)*%
X82410100Y-23500000D03*
%TD*%
D21*
%TO.N,/PWM_B*%
X43577500Y-50922500D02*
X43500000Y-51000000D01*
X43655000Y-50845000D02*
X43577500Y-50922500D01*
X66222500Y-50922500D02*
X66300000Y-50845000D01*
X43577500Y-50922500D02*
X66222500Y-50922500D01*
%TO.N,Net-(Q1-Pad2)*%
X44800000Y-37740000D02*
X44800000Y-38300000D01*
X51000000Y-31540000D02*
X44800000Y-37740000D01*
X43500000Y-38300000D02*
X44800000Y-38300000D01*
%TO.N,/SDA*%
X56315000Y-53385000D02*
X66300000Y-53385000D01*
X41200000Y-68500000D02*
X56315000Y-53385000D01*
%TO.N,/SCL*%
X43740000Y-67150000D02*
X43740000Y-68500000D01*
X49885000Y-61005000D02*
X43740000Y-67150000D01*
X66300000Y-61005000D02*
X49885000Y-61005000D01*
%TO.N,/Output_B*%
X93855000Y-58080000D02*
X91700000Y-55925000D01*
X117000000Y-58080000D02*
X93855000Y-58080000D01*
%TO.N,/Switch*%
X94625000Y-47920000D02*
X91700000Y-50845000D01*
X117000000Y-47920000D02*
X94625000Y-47920000D01*
%TO.N,/Output_A*%
X115650000Y-53000000D02*
X117000000Y-53000000D01*
X115458000Y-53192500D02*
X115650000Y-53000000D01*
X91892500Y-53192500D02*
X115458000Y-53192500D01*
X92085000Y-53000000D02*
X91892500Y-53192500D01*
X91892500Y-53192500D02*
X91700000Y-53385000D01*
%TO.N,+3.3V*%
X64185900Y-90040000D02*
X49500000Y-90040000D01*
X66725900Y-87500000D02*
X64185900Y-90040000D01*
X98650000Y-88500000D02*
X100000000Y-88500000D01*
X97650000Y-87500000D02*
X98650000Y-88500000D01*
X67025000Y-87500000D02*
X97650000Y-87500000D01*
X66725900Y-87500000D02*
X67025000Y-87500000D01*
X66426800Y-87500000D02*
X66725900Y-87500000D01*
%TO.N,GND*%
X63135000Y-87500000D02*
X49500000Y-87500000D01*
X65675000Y-84960000D02*
X63135000Y-87500000D01*
X67025000Y-84960000D02*
X65675000Y-84960000D01*
X69375000Y-85960000D02*
X100000000Y-85960000D01*
X68375000Y-84960000D02*
X69375000Y-85960000D01*
X67025000Y-84960000D02*
X68375000Y-84960000D01*
X50801000Y-86199000D02*
X49500000Y-87500000D01*
X50801000Y-70481000D02*
X50801000Y-86199000D01*
X48820000Y-68500000D02*
X50801000Y-70481000D01*
X91700000Y-30525000D02*
X66300000Y-30525000D01*
X55704000Y-30525000D02*
X52149000Y-34080000D01*
X66300000Y-30525000D02*
X55704000Y-30525000D01*
X51000000Y-34080000D02*
X52149000Y-34080000D01*
%TO.N,Net-(D1-A)*%
X105500000Y-36460000D02*
X106850000Y-36460000D01*
X111390000Y-31920000D02*
X106850000Y-36460000D01*
X116500000Y-31920000D02*
X111390000Y-31920000D01*
X93890000Y-23500000D02*
X82410100Y-23500000D01*
X106850000Y-36460000D02*
X93890000Y-23500000D01*
X56500000Y-23500000D02*
X51000000Y-29000000D01*
X82410100Y-23500000D02*
X56500000Y-23500000D01*
%TO.N,/P_B*%
X109930000Y-42080000D02*
X106850000Y-39000000D01*
X116500000Y-42080000D02*
X109930000Y-42080000D01*
X105500000Y-39000000D02*
X106850000Y-39000000D01*
X93135000Y-27985000D02*
X91700000Y-27985000D01*
X104150000Y-39000000D02*
X93135000Y-27985000D01*
X105500000Y-39000000D02*
X104150000Y-39000000D01*
%TD*%
M02*
