%TF.GenerationSoftware,KiCad,Pcbnew,9.0.0*%
%TF.CreationDate,2025-03-05T16:28:04-05:00*%
%TF.ProjectId,Sistema-de-riego-automatico,53697374-656d-4612-9d64-652d72696567,rev?*%
%TF.SameCoordinates,Original*%
%TF.FileFunction,Legend,Top*%
%TF.FilePolarity,Positive*%
%FSLAX46Y46*%
G04 Gerber Fmt 4.6, Leading zero omitted, Abs format (unit mm)*
G04 Created by KiCad (PCBNEW 9.0.0) date 2025-03-05 16:28:04*
%MOMM*%
%LPD*%
G01*
G04 APERTURE LIST*
%ADD10C,0.150000*%
%ADD11C,0.120000*%
%ADD12C,0.200000*%
%ADD13C,0.127000*%
G04 APERTURE END LIST*
D10*
X66691666Y-81644819D02*
X66691666Y-82359104D01*
X66691666Y-82359104D02*
X66644047Y-82501961D01*
X66644047Y-82501961D02*
X66548809Y-82597200D01*
X66548809Y-82597200D02*
X66405952Y-82644819D01*
X66405952Y-82644819D02*
X66310714Y-82644819D01*
X67644047Y-81644819D02*
X67167857Y-81644819D01*
X67167857Y-81644819D02*
X67120238Y-82121009D01*
X67120238Y-82121009D02*
X67167857Y-82073390D01*
X67167857Y-82073390D02*
X67263095Y-82025771D01*
X67263095Y-82025771D02*
X67501190Y-82025771D01*
X67501190Y-82025771D02*
X67596428Y-82073390D01*
X67596428Y-82073390D02*
X67644047Y-82121009D01*
X67644047Y-82121009D02*
X67691666Y-82216247D01*
X67691666Y-82216247D02*
X67691666Y-82454342D01*
X67691666Y-82454342D02*
X67644047Y-82549580D01*
X67644047Y-82549580D02*
X67596428Y-82597200D01*
X67596428Y-82597200D02*
X67501190Y-82644819D01*
X67501190Y-82644819D02*
X67263095Y-82644819D01*
X67263095Y-82644819D02*
X67167857Y-82597200D01*
X67167857Y-82597200D02*
X67120238Y-82549580D01*
X39666666Y-97254819D02*
X39333333Y-96778628D01*
X39095238Y-97254819D02*
X39095238Y-96254819D01*
X39095238Y-96254819D02*
X39476190Y-96254819D01*
X39476190Y-96254819D02*
X39571428Y-96302438D01*
X39571428Y-96302438D02*
X39619047Y-96350057D01*
X39619047Y-96350057D02*
X39666666Y-96445295D01*
X39666666Y-96445295D02*
X39666666Y-96588152D01*
X39666666Y-96588152D02*
X39619047Y-96683390D01*
X39619047Y-96683390D02*
X39571428Y-96731009D01*
X39571428Y-96731009D02*
X39476190Y-96778628D01*
X39476190Y-96778628D02*
X39095238Y-96778628D01*
X40095238Y-96731009D02*
X40428571Y-96731009D01*
X40571428Y-97254819D02*
X40095238Y-97254819D01*
X40095238Y-97254819D02*
X40095238Y-96254819D01*
X40095238Y-96254819D02*
X40571428Y-96254819D01*
X41333333Y-96731009D02*
X41000000Y-96731009D01*
X41000000Y-97254819D02*
X41000000Y-96254819D01*
X41000000Y-96254819D02*
X41476190Y-96254819D01*
X42000000Y-96254819D02*
X42000000Y-96492914D01*
X41761905Y-96397676D02*
X42000000Y-96492914D01*
X42000000Y-96492914D02*
X42238095Y-96397676D01*
X41857143Y-96683390D02*
X42000000Y-96492914D01*
X42000000Y-96492914D02*
X42142857Y-96683390D01*
X42761905Y-96254819D02*
X42761905Y-96492914D01*
X42523810Y-96397676D02*
X42761905Y-96492914D01*
X42761905Y-96492914D02*
X43000000Y-96397676D01*
X42619048Y-96683390D02*
X42761905Y-96492914D01*
X42761905Y-96492914D02*
X42904762Y-96683390D01*
X117166666Y-97754819D02*
X116833333Y-97278628D01*
X116595238Y-97754819D02*
X116595238Y-96754819D01*
X116595238Y-96754819D02*
X116976190Y-96754819D01*
X116976190Y-96754819D02*
X117071428Y-96802438D01*
X117071428Y-96802438D02*
X117119047Y-96850057D01*
X117119047Y-96850057D02*
X117166666Y-96945295D01*
X117166666Y-96945295D02*
X117166666Y-97088152D01*
X117166666Y-97088152D02*
X117119047Y-97183390D01*
X117119047Y-97183390D02*
X117071428Y-97231009D01*
X117071428Y-97231009D02*
X116976190Y-97278628D01*
X116976190Y-97278628D02*
X116595238Y-97278628D01*
X117595238Y-97231009D02*
X117928571Y-97231009D01*
X118071428Y-97754819D02*
X117595238Y-97754819D01*
X117595238Y-97754819D02*
X117595238Y-96754819D01*
X117595238Y-96754819D02*
X118071428Y-96754819D01*
X118833333Y-97231009D02*
X118500000Y-97231009D01*
X118500000Y-97754819D02*
X118500000Y-96754819D01*
X118500000Y-96754819D02*
X118976190Y-96754819D01*
X119500000Y-96754819D02*
X119500000Y-96992914D01*
X119261905Y-96897676D02*
X119500000Y-96992914D01*
X119500000Y-96992914D02*
X119738095Y-96897676D01*
X119357143Y-97183390D02*
X119500000Y-96992914D01*
X119500000Y-96992914D02*
X119642857Y-97183390D01*
X120261905Y-96754819D02*
X120261905Y-96992914D01*
X120023810Y-96897676D02*
X120261905Y-96992914D01*
X120261905Y-96992914D02*
X120500000Y-96897676D01*
X120119048Y-97183390D02*
X120261905Y-96992914D01*
X120261905Y-96992914D02*
X120404762Y-97183390D01*
X39166666Y-20254819D02*
X38833333Y-19778628D01*
X38595238Y-20254819D02*
X38595238Y-19254819D01*
X38595238Y-19254819D02*
X38976190Y-19254819D01*
X38976190Y-19254819D02*
X39071428Y-19302438D01*
X39071428Y-19302438D02*
X39119047Y-19350057D01*
X39119047Y-19350057D02*
X39166666Y-19445295D01*
X39166666Y-19445295D02*
X39166666Y-19588152D01*
X39166666Y-19588152D02*
X39119047Y-19683390D01*
X39119047Y-19683390D02*
X39071428Y-19731009D01*
X39071428Y-19731009D02*
X38976190Y-19778628D01*
X38976190Y-19778628D02*
X38595238Y-19778628D01*
X39595238Y-19731009D02*
X39928571Y-19731009D01*
X40071428Y-20254819D02*
X39595238Y-20254819D01*
X39595238Y-20254819D02*
X39595238Y-19254819D01*
X39595238Y-19254819D02*
X40071428Y-19254819D01*
X40833333Y-19731009D02*
X40500000Y-19731009D01*
X40500000Y-20254819D02*
X40500000Y-19254819D01*
X40500000Y-19254819D02*
X40976190Y-19254819D01*
X41500000Y-19254819D02*
X41500000Y-19492914D01*
X41261905Y-19397676D02*
X41500000Y-19492914D01*
X41500000Y-19492914D02*
X41738095Y-19397676D01*
X41357143Y-19683390D02*
X41500000Y-19492914D01*
X41500000Y-19492914D02*
X41642857Y-19683390D01*
X42261905Y-19254819D02*
X42261905Y-19492914D01*
X42023810Y-19397676D02*
X42261905Y-19492914D01*
X42261905Y-19492914D02*
X42500000Y-19397676D01*
X42119048Y-19683390D02*
X42261905Y-19492914D01*
X42261905Y-19492914D02*
X42404762Y-19683390D01*
X117166666Y-20254819D02*
X116833333Y-19778628D01*
X116595238Y-20254819D02*
X116595238Y-19254819D01*
X116595238Y-19254819D02*
X116976190Y-19254819D01*
X116976190Y-19254819D02*
X117071428Y-19302438D01*
X117071428Y-19302438D02*
X117119047Y-19350057D01*
X117119047Y-19350057D02*
X117166666Y-19445295D01*
X117166666Y-19445295D02*
X117166666Y-19588152D01*
X117166666Y-19588152D02*
X117119047Y-19683390D01*
X117119047Y-19683390D02*
X117071428Y-19731009D01*
X117071428Y-19731009D02*
X116976190Y-19778628D01*
X116976190Y-19778628D02*
X116595238Y-19778628D01*
X117595238Y-19731009D02*
X117928571Y-19731009D01*
X118071428Y-20254819D02*
X117595238Y-20254819D01*
X117595238Y-20254819D02*
X117595238Y-19254819D01*
X117595238Y-19254819D02*
X118071428Y-19254819D01*
X118833333Y-19731009D02*
X118500000Y-19731009D01*
X118500000Y-20254819D02*
X118500000Y-19254819D01*
X118500000Y-19254819D02*
X118976190Y-19254819D01*
X119500000Y-19254819D02*
X119500000Y-19492914D01*
X119261905Y-19397676D02*
X119500000Y-19492914D01*
X119500000Y-19492914D02*
X119738095Y-19397676D01*
X119357143Y-19683390D02*
X119500000Y-19492914D01*
X119500000Y-19492914D02*
X119642857Y-19683390D01*
X120261905Y-19254819D02*
X120261905Y-19492914D01*
X120023810Y-19397676D02*
X120261905Y-19492914D01*
X120261905Y-19492914D02*
X120500000Y-19397676D01*
X120119048Y-19683390D02*
X120261905Y-19492914D01*
X120261905Y-19492914D02*
X120404762Y-19683390D01*
X99666666Y-83084819D02*
X99666666Y-83799104D01*
X99666666Y-83799104D02*
X99619047Y-83941961D01*
X99619047Y-83941961D02*
X99523809Y-84037200D01*
X99523809Y-84037200D02*
X99380952Y-84084819D01*
X99380952Y-84084819D02*
X99285714Y-84084819D01*
X100666666Y-84084819D02*
X100095238Y-84084819D01*
X100380952Y-84084819D02*
X100380952Y-83084819D01*
X100380952Y-83084819D02*
X100285714Y-83227676D01*
X100285714Y-83227676D02*
X100190476Y-83322914D01*
X100190476Y-83322914D02*
X100095238Y-83370533D01*
X116666666Y-44604819D02*
X116666666Y-45319104D01*
X116666666Y-45319104D02*
X116619047Y-45461961D01*
X116619047Y-45461961D02*
X116523809Y-45557200D01*
X116523809Y-45557200D02*
X116380952Y-45604819D01*
X116380952Y-45604819D02*
X116285714Y-45604819D01*
X117095238Y-44700057D02*
X117142857Y-44652438D01*
X117142857Y-44652438D02*
X117238095Y-44604819D01*
X117238095Y-44604819D02*
X117476190Y-44604819D01*
X117476190Y-44604819D02*
X117571428Y-44652438D01*
X117571428Y-44652438D02*
X117619047Y-44700057D01*
X117619047Y-44700057D02*
X117666666Y-44795295D01*
X117666666Y-44795295D02*
X117666666Y-44890533D01*
X117666666Y-44890533D02*
X117619047Y-45033390D01*
X117619047Y-45033390D02*
X117047619Y-45604819D01*
X117047619Y-45604819D02*
X117666666Y-45604819D01*
X41234819Y-44816666D02*
X40758628Y-45149999D01*
X41234819Y-45388094D02*
X40234819Y-45388094D01*
X40234819Y-45388094D02*
X40234819Y-45007142D01*
X40234819Y-45007142D02*
X40282438Y-44911904D01*
X40282438Y-44911904D02*
X40330057Y-44864285D01*
X40330057Y-44864285D02*
X40425295Y-44816666D01*
X40425295Y-44816666D02*
X40568152Y-44816666D01*
X40568152Y-44816666D02*
X40663390Y-44864285D01*
X40663390Y-44864285D02*
X40711009Y-44911904D01*
X40711009Y-44911904D02*
X40758628Y-45007142D01*
X40758628Y-45007142D02*
X40758628Y-45388094D01*
X41234819Y-43864285D02*
X41234819Y-44435713D01*
X41234819Y-44149999D02*
X40234819Y-44149999D01*
X40234819Y-44149999D02*
X40377676Y-44245237D01*
X40377676Y-44245237D02*
X40472914Y-44340475D01*
X40472914Y-44340475D02*
X40520533Y-44435713D01*
X66883095Y-15594819D02*
X66883095Y-16404342D01*
X66883095Y-16404342D02*
X66930714Y-16499580D01*
X66930714Y-16499580D02*
X66978333Y-16547200D01*
X66978333Y-16547200D02*
X67073571Y-16594819D01*
X67073571Y-16594819D02*
X67264047Y-16594819D01*
X67264047Y-16594819D02*
X67359285Y-16547200D01*
X67359285Y-16547200D02*
X67406904Y-16499580D01*
X67406904Y-16499580D02*
X67454523Y-16404342D01*
X67454523Y-16404342D02*
X67454523Y-15594819D01*
X68454523Y-16594819D02*
X67883095Y-16594819D01*
X68168809Y-16594819D02*
X68168809Y-15594819D01*
X68168809Y-15594819D02*
X68073571Y-15737676D01*
X68073571Y-15737676D02*
X67978333Y-15832914D01*
X67978333Y-15832914D02*
X67883095Y-15880533D01*
X49166666Y-81644819D02*
X49166666Y-82359104D01*
X49166666Y-82359104D02*
X49119047Y-82501961D01*
X49119047Y-82501961D02*
X49023809Y-82597200D01*
X49023809Y-82597200D02*
X48880952Y-82644819D01*
X48880952Y-82644819D02*
X48785714Y-82644819D01*
X49547619Y-81644819D02*
X50214285Y-81644819D01*
X50214285Y-81644819D02*
X49785714Y-82644819D01*
X38324819Y-68833333D02*
X39039104Y-68833333D01*
X39039104Y-68833333D02*
X39181961Y-68880952D01*
X39181961Y-68880952D02*
X39277200Y-68976190D01*
X39277200Y-68976190D02*
X39324819Y-69119047D01*
X39324819Y-69119047D02*
X39324819Y-69214285D01*
X38324819Y-68452380D02*
X38324819Y-67833333D01*
X38324819Y-67833333D02*
X38705771Y-68166666D01*
X38705771Y-68166666D02*
X38705771Y-68023809D01*
X38705771Y-68023809D02*
X38753390Y-67928571D01*
X38753390Y-67928571D02*
X38801009Y-67880952D01*
X38801009Y-67880952D02*
X38896247Y-67833333D01*
X38896247Y-67833333D02*
X39134342Y-67833333D01*
X39134342Y-67833333D02*
X39229580Y-67880952D01*
X39229580Y-67880952D02*
X39277200Y-67928571D01*
X39277200Y-67928571D02*
X39324819Y-68023809D01*
X39324819Y-68023809D02*
X39324819Y-68309523D01*
X39324819Y-68309523D02*
X39277200Y-68404761D01*
X39277200Y-68404761D02*
X39229580Y-68452380D01*
X47333057Y-31899238D02*
X47285438Y-31994476D01*
X47285438Y-31994476D02*
X47190200Y-32089714D01*
X47190200Y-32089714D02*
X47047342Y-32232571D01*
X47047342Y-32232571D02*
X46999723Y-32327809D01*
X46999723Y-32327809D02*
X46999723Y-32423047D01*
X47237819Y-32375428D02*
X47190200Y-32470666D01*
X47190200Y-32470666D02*
X47094961Y-32565904D01*
X47094961Y-32565904D02*
X46904485Y-32613523D01*
X46904485Y-32613523D02*
X46571152Y-32613523D01*
X46571152Y-32613523D02*
X46380676Y-32565904D01*
X46380676Y-32565904D02*
X46285438Y-32470666D01*
X46285438Y-32470666D02*
X46237819Y-32375428D01*
X46237819Y-32375428D02*
X46237819Y-32184952D01*
X46237819Y-32184952D02*
X46285438Y-32089714D01*
X46285438Y-32089714D02*
X46380676Y-31994476D01*
X46380676Y-31994476D02*
X46571152Y-31946857D01*
X46571152Y-31946857D02*
X46904485Y-31946857D01*
X46904485Y-31946857D02*
X47094961Y-31994476D01*
X47094961Y-31994476D02*
X47190200Y-32089714D01*
X47190200Y-32089714D02*
X47237819Y-32184952D01*
X47237819Y-32184952D02*
X47237819Y-32375428D01*
X47237819Y-30994476D02*
X47237819Y-31565904D01*
X47237819Y-31280190D02*
X46237819Y-31280190D01*
X46237819Y-31280190D02*
X46380676Y-31375428D01*
X46380676Y-31375428D02*
X46475914Y-31470666D01*
X46475914Y-31470666D02*
X46523533Y-31565904D01*
X105166666Y-40784819D02*
X105166666Y-41499104D01*
X105166666Y-41499104D02*
X105119047Y-41641961D01*
X105119047Y-41641961D02*
X105023809Y-41737200D01*
X105023809Y-41737200D02*
X104880952Y-41784819D01*
X104880952Y-41784819D02*
X104785714Y-41784819D01*
X106071428Y-40784819D02*
X105880952Y-40784819D01*
X105880952Y-40784819D02*
X105785714Y-40832438D01*
X105785714Y-40832438D02*
X105738095Y-40880057D01*
X105738095Y-40880057D02*
X105642857Y-41022914D01*
X105642857Y-41022914D02*
X105595238Y-41213390D01*
X105595238Y-41213390D02*
X105595238Y-41594342D01*
X105595238Y-41594342D02*
X105642857Y-41689580D01*
X105642857Y-41689580D02*
X105690476Y-41737200D01*
X105690476Y-41737200D02*
X105785714Y-41784819D01*
X105785714Y-41784819D02*
X105976190Y-41784819D01*
X105976190Y-41784819D02*
X106071428Y-41737200D01*
X106071428Y-41737200D02*
X106119047Y-41689580D01*
X106119047Y-41689580D02*
X106166666Y-41594342D01*
X106166666Y-41594342D02*
X106166666Y-41356247D01*
X106166666Y-41356247D02*
X106119047Y-41261009D01*
X106119047Y-41261009D02*
X106071428Y-41213390D01*
X106071428Y-41213390D02*
X105976190Y-41165771D01*
X105976190Y-41165771D02*
X105785714Y-41165771D01*
X105785714Y-41165771D02*
X105690476Y-41213390D01*
X105690476Y-41213390D02*
X105642857Y-41261009D01*
X105642857Y-41261009D02*
X105595238Y-41356247D01*
X114484819Y-37738094D02*
X113484819Y-37738094D01*
X113484819Y-37738094D02*
X113484819Y-37499999D01*
X113484819Y-37499999D02*
X113532438Y-37357142D01*
X113532438Y-37357142D02*
X113627676Y-37261904D01*
X113627676Y-37261904D02*
X113722914Y-37214285D01*
X113722914Y-37214285D02*
X113913390Y-37166666D01*
X113913390Y-37166666D02*
X114056247Y-37166666D01*
X114056247Y-37166666D02*
X114246723Y-37214285D01*
X114246723Y-37214285D02*
X114341961Y-37261904D01*
X114341961Y-37261904D02*
X114437200Y-37357142D01*
X114437200Y-37357142D02*
X114484819Y-37499999D01*
X114484819Y-37499999D02*
X114484819Y-37738094D01*
X114484819Y-36214285D02*
X114484819Y-36785713D01*
X114484819Y-36499999D02*
X113484819Y-36499999D01*
X113484819Y-36499999D02*
X113627676Y-36595237D01*
X113627676Y-36595237D02*
X113722914Y-36690475D01*
X113722914Y-36690475D02*
X113770533Y-36785713D01*
X114854819Y-42341904D02*
X113854819Y-42341904D01*
X114854819Y-41770476D02*
X114283390Y-42199047D01*
X113854819Y-41770476D02*
X114426247Y-42341904D01*
D11*
%TO.C,J5*%
X65695000Y-86230000D02*
X65695000Y-91370000D01*
X65695000Y-86230000D02*
X68355000Y-86230000D01*
X65695000Y-91370000D02*
X68355000Y-91370000D01*
X67025000Y-83630000D02*
X68355000Y-83630000D01*
X68355000Y-83630000D02*
X68355000Y-84960000D01*
X68355000Y-86230000D02*
X68355000Y-91370000D01*
%TO.C,J1*%
X101330000Y-87230000D02*
X101330000Y-92370000D01*
X98670000Y-92370000D02*
X101330000Y-92370000D01*
X98670000Y-87230000D02*
X101330000Y-87230000D01*
X98670000Y-87230000D02*
X98670000Y-92370000D01*
X98670000Y-85960000D02*
X98670000Y-84630000D01*
X98670000Y-84630000D02*
X100000000Y-84630000D01*
%TO.C,J2*%
X118330000Y-49190000D02*
X118330000Y-59410000D01*
X118330000Y-46590000D02*
X118330000Y-47920000D01*
X117000000Y-46590000D02*
X118330000Y-46590000D01*
X115670000Y-59410000D02*
X118330000Y-59410000D01*
X115670000Y-49190000D02*
X118330000Y-49190000D01*
X115670000Y-49190000D02*
X115670000Y-59410000D01*
%TO.C,R1*%
X45220000Y-49270000D02*
X45220000Y-40030000D01*
X45220000Y-40030000D02*
X41780000Y-40030000D01*
X43500000Y-49960000D02*
X43500000Y-49270000D01*
X43500000Y-39340000D02*
X43500000Y-40030000D01*
X41780000Y-49270000D02*
X45220000Y-49270000D01*
X41780000Y-40030000D02*
X41780000Y-49270000D01*
D12*
%TO.C,U1*%
X64250000Y-27985000D02*
G75*
G02*
X64050000Y-27985000I-100000J0D01*
G01*
X64050000Y-27985000D02*
G75*
G02*
X64250000Y-27985000I100000J0D01*
G01*
D13*
X93230000Y-68975000D02*
X64720000Y-68975000D01*
X93230000Y-18025000D02*
X93230000Y-68975000D01*
X93230000Y-18025000D02*
X93230000Y-68975000D01*
X87780000Y-68975000D02*
X93230000Y-68975000D01*
X82500000Y-18025000D02*
X93230000Y-18025000D01*
X75789000Y-18025000D02*
X82500000Y-18025000D01*
X70090000Y-68975000D02*
X87780000Y-68975000D01*
X64720000Y-68975000D02*
X70090000Y-68975000D01*
X64720000Y-68975000D02*
X64720000Y-18025000D01*
X64720000Y-68975000D02*
X64720000Y-18025000D01*
X64720000Y-18025000D02*
X93230000Y-18025000D01*
X64720000Y-18025000D02*
X75789000Y-18025000D01*
D11*
%TO.C,J7*%
X50830000Y-86230000D02*
X50830000Y-91370000D01*
X50830000Y-83630000D02*
X50830000Y-84960000D01*
X49500000Y-83630000D02*
X50830000Y-83630000D01*
X48170000Y-91370000D02*
X50830000Y-91370000D01*
X48170000Y-86230000D02*
X50830000Y-86230000D01*
X48170000Y-86230000D02*
X48170000Y-91370000D01*
%TO.C,J3*%
X50150000Y-69830000D02*
X50150000Y-67170000D01*
X42470000Y-69830000D02*
X50150000Y-69830000D01*
X42470000Y-69830000D02*
X42470000Y-67170000D01*
X42470000Y-67170000D02*
X50150000Y-67170000D01*
X41200000Y-69830000D02*
X39870000Y-69830000D01*
X39870000Y-69830000D02*
X39870000Y-68500000D01*
D12*
%TO.C,Q1*%
X51100000Y-35729000D02*
G75*
G02*
X50900000Y-35729000I-100000J0D01*
G01*
X50900000Y-35729000D02*
G75*
G02*
X51100000Y-35729000I100000J0D01*
G01*
D13*
X48670000Y-31540000D02*
G75*
G02*
X50070000Y-29340000I2605258J-112437D01*
G01*
X50070000Y-33740000D02*
G75*
G02*
X48670000Y-31540000I1205258J2312437D01*
G01*
X52270000Y-33840000D02*
X52270000Y-29240000D01*
D11*
%TO.C,J6*%
X106830000Y-40330000D02*
X105500000Y-40330000D01*
X106830000Y-39000000D02*
X106830000Y-40330000D01*
X106830000Y-37730000D02*
X106830000Y-35130000D01*
X106830000Y-37730000D02*
X104170000Y-37730000D01*
X106830000Y-35130000D02*
X104170000Y-35130000D01*
X104170000Y-37730000D02*
X104170000Y-35130000D01*
%TO.C,D1*%
X117970000Y-39720000D02*
X117970000Y-34280000D01*
X117970000Y-34280000D02*
X115030000Y-34280000D01*
X116500000Y-40740000D02*
X116500000Y-39720000D01*
X116500000Y-33260000D02*
X116500000Y-34280000D01*
X115030000Y-39720000D02*
X117970000Y-39720000D01*
X115030000Y-38940000D02*
X117970000Y-38940000D01*
X115030000Y-38820000D02*
X117970000Y-38820000D01*
X115030000Y-38700000D02*
X117970000Y-38700000D01*
X115030000Y-34280000D02*
X115030000Y-39720000D01*
%TD*%
M02*
